<svg xmlns="http://www.w3.org/2000/svg" viewBox="0 0 512 512">
  <defs>
    <linearGradient id="bg" x1="0%" y1="0%" x2="100%" y2="100%">
      <stop offset="0%" stop-color="#8a2be2"/>
      <stop offset="100%" stop-color="#ff007f"/>
    </linearGradient>
  </defs>
  <rect width="512" height="512" rx="112" fill="url(#bg)"/>
  <path d="M192 128v104.7c0 23.3-13.4 43.6-32 54.1V448h-64V286.8c-18.6-10.5-32-30.8-32-54.1V128h24v104.7c0 10.9 8.2 19.9 19 21.2v-126h22v126c10.8-1.3 19-10.3 19-21.2V128h24zM392.3 128h25.4c6.8 0 12.3 5.5 12.3 12.3v307.4c0 6.8-5.5 12.3-12.3 12.3h-25.4c-6.8 0-12.3-5.5-12.3-12.3V296H320v151.7c0 6.8-5.5 12.3-12.3 12.3h-25.4c-6.8 0-12.3-5.5-12.3-12.3V140.3c0-6.8 5.5-12.3 12.3-12.3h64c24.6 0 46 20.6 46 46v122h-32V128z" fill="#ffffff"/>
</svg>
